<?xml version="1.0" encoding="UTF-8"?>
<svg width="196px" height="80px" viewBox="0 0 196 80" version="1.1" xmlns="http://www.w3.org/2000/svg" xmlns:xlink="http://www.w3.org/1999/xlink">
    <!-- Generator: Sketch 49 (51002) - http://www.bohemiancoding.com/sketch -->
    <title>Group 2</title>
    <desc>Created with Sketch.</desc>
    <defs>
        <linearGradient x1="50%" y1="0%" x2="50%" y2="100%" id="linearGradient-1">
            <stop stop-color="#FFFFFF" offset="0%"></stop>
            <stop stop-color="#000000" offset="100%"></stop>
        </linearGradient>
    </defs>
    <g id="Page-1" stroke="none" stroke-width="1" fill="none" fill-rule="evenodd">
        <g id="Home-1" transform="translate(-980.000000, -1945.000000)">
            <g id="Group-2" transform="translate(980.000000, 1945.000000)">
                <rect id="Rectangle-2" fill="#004A99" x="0" y="0" width="196" height="80"></rect>
                <g id="logo/white" transform="translate(17.000000, 10.000000)" fill="#FFFFFF">
                    <g id="logo">
                        <g id="Group" transform="translate(26.880213, 7.346939)">
                            <path d="M12.9025022,14.2193878 C13.0802782,14.2193878 13.2171229,14.2744898 13.3136473,14.3865306 C13.4095608,14.4973469 13.4278882,14.642449 13.3692405,14.82 C12.9837538,16.2446939 12.1883438,17.457551 10.9817888,18.4591837 C9.77462289,19.4608163 8.07567125,19.9622449 5.88432298,19.9622449 C4.74435759,19.9622449 3.75956433,19.7504082 2.93055413,19.3273469 C2.10093301,18.9042857 1.46436069,18.3073469 1.02022626,17.5359184 C0.576091837,16.7644898 0.35433008,15.8810204 0.35433008,14.8867347 C0.35433008,14.6791837 0.383653949,14.3234694 0.4429126,13.8183673 C0.664674357,12.4536735 0.931643744,11.2071429 1.24259894,10.0787755 C1.76065395,8.16489796 2.64159184,6.66244898 3.8854126,5.57204082 C5.12923336,4.48102041 6.7799228,3.93612245 8.83809184,3.93612245 C10.1112365,3.93612245 11.1815577,4.15102041 12.0478336,4.58142857 C12.9141096,5.01183673 13.5610674,5.57204082 13.9911508,6.26204082 C14.4200124,6.95142857 14.6350541,7.68306122 14.6350541,8.4544898 C14.6350541,8.60265306 14.6203922,8.81020408 14.5904574,9.0777551 C14.5757955,9.25591837 14.4975985,9.40040816 14.3570883,9.51183673 C14.2165781,9.62265306 14.0577405,9.67836735 13.8799645,9.67836735 L12.080823,9.67836735 C11.917709,9.67836735 11.7808642,9.62693878 11.6702888,9.52285714 C11.5591025,9.41877551 11.5108403,9.27795918 11.5255022,9.09979592 C11.5548261,8.43183673 11.3257334,7.86857143 10.8370022,7.40816327 C10.3482711,6.94836735 9.56324667,6.71816327 8.48315084,6.71816327 C7.38717125,6.71816327 6.47324401,7.02979592 5.74014729,7.65306122 C5.00705058,8.27632653 4.50732298,9.08510204 4.24096451,10.0787755 C3.93000932,11.2071429 3.66365084,12.4536735 3.44127817,13.8183673 C3.39668146,14.0559184 3.37468855,14.2934694 3.37468855,14.5304082 C3.37468855,15.332449 3.61538864,15.9740816 4.09678882,16.4559184 C4.57757808,16.9383673 5.29906744,17.1795918 6.26186779,17.1795918 C7.34257453,17.1795918 8.22717791,16.95 8.91628882,16.4895918 C9.60478882,16.0297959 10.0819126,15.4659184 10.3482711,14.7979592 C10.4075297,14.6197959 10.5113851,14.4789796 10.6592263,14.374898 C10.8070674,14.2714286 10.9555195,14.2193878 11.1033607,14.2193878 L12.9025022,14.2193878" id="Fill-1"></path>
                            <path d="M16.9870728,19.5612245 C16.8459516,19.68 16.694445,19.7393878 16.5319419,19.7393878 L14.8433758,19.7393878 C14.6808727,19.7393878 14.5513589,19.68 14.4554454,19.5612245 C14.3583101,19.442449 14.3253208,19.3016327 14.3552555,19.1381633 L17.4641965,4.53673469 C17.4941313,4.37387755 17.5790484,4.23306122 17.7195586,4.11367347 C17.8606797,3.9955102 18.0121863,3.93612245 18.1753004,3.93612245 L19.8632555,3.93612245 C20.0257587,3.93612245 20.1552724,3.9955102 20.2517968,4.11367347 C20.3483212,4.23306122 20.3813106,4.37387755 20.3513758,4.53673469 L17.2424348,19.1381633 C17.2125,19.3016327 17.127583,19.442449 16.9870728,19.5612245" id="Fill-2"></path>
                            <path d="M28.2981442,12.6612245 L28.3201371,12.3495918 C28.3201371,11.1918367 27.6389681,10.6132653 26.2772409,10.6132653 C25.5068784,10.6132653 24.8593097,10.8214286 24.3333128,11.2365306 C23.8079268,11.6522449 23.4560404,12.1267347 23.2788753,12.6612245 L28.2981442,12.6612245 Z M28.9866442,8.54326531 C29.6824752,8.94367347 30.2267995,9.48918367 30.6190062,10.1791837 C31.011213,10.8691837 31.2073163,11.6369388 31.2073163,12.4830612 C31.2073163,12.9134694 31.1706615,13.2844898 31.0967409,13.5961224 L30.896972,14.5977551 C30.8523753,14.7612245 30.7595164,14.9020408 30.6190062,15.0202041 C30.478496,15.1395918 30.3263784,15.1983673 30.1638753,15.1983673 L22.7455475,15.1983673 C22.7162236,15.4065306 22.7015617,15.5473469 22.7015617,15.6214286 C22.7015617,16.1412245 22.9080506,16.5489796 23.323472,16.8459184 C23.7376717,17.1428571 24.2483957,17.2910204 24.8556442,17.2910204 C25.6699925,17.2910204 26.3358886,17.1202041 26.8545546,16.7785714 C27.0323305,16.6604082 27.1801717,16.5783673 27.298689,16.5336735 C27.4172063,16.4895918 27.5656584,16.467551 27.7428234,16.467551 L29.519972,16.467551 C29.6678132,16.467551 29.7863305,16.5116327 29.874913,16.6010204 C29.9641065,16.6897959 30.0087032,16.7938776 30.0087032,16.9126531 C30.0087032,17.1942857 29.7936615,17.5842857 29.364189,18.0808163 C28.9347165,18.5785714 28.3054752,19.0157143 27.476465,19.3940816 C26.6468438,19.772449 25.6553305,19.9622449 24.5007032,19.9622449 C23.6710821,19.9622449 22.912327,19.7614286 22.223827,19.3610204 C21.535327,18.96 20.9910027,18.4040816 20.591465,17.6914286 C20.1913163,16.9793878 19.9915475,16.1632653 19.9915475,15.2430612 C19.9915475,14.7532653 20.0434752,14.2934694 20.1473305,13.8630612 C20.5322063,12.0679592 21.2573611,10.6322449 22.3234059,9.55591837 C23.3900617,8.48020408 24.8189894,7.94265306 26.610189,7.94265306 C27.4984579,7.94265306 28.2908132,8.14285714 28.9866442,8.54326531 L28.9866442,8.54326531 Z" id="Fill-3"></path>
                            <path d="M32.3558345,9.01102041 C32.2965759,8.78816327 32.3448381,8.59163265 32.5000102,8.42081633 C32.6557933,8.25061224 32.8445657,8.16489796 33.0663274,8.16489796 L34.5765067,8.16489796 C34.9320586,8.16489796 35.1391584,8.34306122 35.198417,8.69877551 L36.7312001,15.5106122 L41.1065657,8.69877551 C41.3283274,8.34306122 41.6093478,8.16489796 41.9502378,8.16489796 L43.8605657,8.16489796 C44.0084068,8.16489796 44.1305896,8.21326531 44.227114,8.30938776 C44.3230275,8.40612245 44.3712897,8.52122449 44.3712897,8.65469388 C44.3712897,8.71408163 44.3413549,8.80285714 44.2820963,8.92163265 L37.6414618,19.1828571 C37.5229445,19.3610204 37.4007618,19.4981633 37.2755244,19.5942857 C37.1490652,19.6910204 36.9896167,19.7393878 36.7977897,19.7393878 L35.2430138,19.7393878 C35.035303,19.7393878 34.8911273,19.6910204 34.8098758,19.5942857 C34.7286242,19.4981633 34.6657001,19.3610204 34.6211034,19.1828571 L32.3558345,9.01102041" id="Fill-4"></path>
                            <path d="M51.7468536,12.6612245 L51.7688465,12.3495918 C51.7688465,11.1918367 51.0876775,10.6132653 49.7259503,10.6132653 C48.9555878,10.6132653 48.3080191,10.8214286 47.7820222,11.2365306 C47.2566362,11.6522449 46.9047498,12.1267347 46.7275847,12.6612245 L51.7468536,12.6612245 Z M52.4353536,8.54326531 C53.1311846,8.94367347 53.674898,9.48918367 54.0677156,10.1791837 C54.4599224,10.8691837 54.6560257,11.6369388 54.6560257,12.4830612 C54.6560257,12.9134694 54.6193709,13.2844898 54.5454503,13.5961224 L54.3456815,14.5977551 C54.3010847,14.7612245 54.2082258,14.9020408 54.0677156,15.0202041 C53.9265945,15.1395918 53.7750878,15.1983673 53.6125847,15.1983673 L46.1942569,15.1983673 C46.1643221,15.4065306 46.1496602,15.5473469 46.1496602,15.6214286 C46.1496602,16.1412245 46.35676,16.5489796 46.7721815,16.8459184 C47.1863811,17.1428571 47.6971051,17.2910204 48.3043536,17.2910204 C49.1180909,17.2910204 49.784598,17.1202041 50.303264,16.7785714 C50.4810399,16.6604082 50.6288811,16.5783673 50.7473984,16.5336735 C50.8659157,16.4895918 51.0137569,16.467551 51.1915328,16.467551 L52.9686815,16.467551 C53.1159117,16.467551 53.2350399,16.5116327 53.3236224,16.6010204 C53.4128159,16.6897959 53.4568017,16.7938776 53.4568017,16.9126531 C53.4568017,17.1942857 53.24176,17.5842857 52.8128984,18.0808163 C52.3834259,18.5785714 51.7541846,19.0157143 50.9251744,19.3940816 C50.0955532,19.772449 49.103429,19.9622449 47.9488017,19.9622449 C47.1191806,19.9622449 46.3610364,19.7614286 45.6725364,19.3610204 C44.9840364,18.96 44.4397121,18.4040816 44.0401744,17.6914286 C43.6400257,16.9793878 43.4402569,16.1632653 43.4402569,15.2430612 C43.4402569,14.7532653 43.4921846,14.2934694 43.595429,13.8630612 C43.9809157,12.0679592 44.7060705,10.6322449 45.7721154,9.55591837 C46.8381602,8.48020408 48.2670878,7.94265306 50.0588984,7.94265306 C50.9471673,7.94265306 51.7389117,8.14285714 52.4353536,8.54326531 L52.4353536,8.54326531 Z" id="Fill-5"></path>
                            <path d="M60.3265288,11.4257143 C59.8518487,11.8193878 59.5189006,12.4610204 59.3264627,13.3512245 L58.0832529,19.1381633 C58.0533181,19.3016327 57.9684011,19.442449 57.8272799,19.5612245 C57.6867697,19.68 57.5352631,19.7393878 57.3721491,19.7393878 L55.6841939,19.7393878 C55.5210799,19.7393878 55.3915661,19.68 55.2956526,19.5612245 C55.1991282,19.442449 55.165528,19.3016327 55.1954627,19.1381633 L57.3947529,8.76612245 C57.4240768,8.60265306 57.5126593,8.46183673 57.6611114,8.34306122 C57.8089525,8.22428571 57.9641247,8.16489796 58.1272387,8.16489796 L59.8151939,8.16489796 C59.9783079,8.16489796 60.1041562,8.22428571 60.1927387,8.34306122 C60.2819321,8.46183673 60.311256,8.60265306 60.2819321,8.76612245 L60.1707458,9.27795918 C60.5702835,8.87693878 60.9594357,8.59163265 61.3363696,8.42081633 C61.7145253,8.25061224 62.2435768,8.16489796 62.9247458,8.16489796 L64.3683354,8.16489796 C64.5308385,8.16489796 64.6566868,8.22428571 64.7458802,8.34306122 C64.8344627,8.46183673 64.8643975,8.60265306 64.8344627,8.76612245 L64.5241185,10.234898 C64.4941837,10.3983673 64.4092666,10.5391837 64.2681455,10.6579592 C64.1276353,10.7767347 63.9761287,10.8361224 63.8130146,10.8361224 L62.369425,10.8361224 C61.4811562,10.8361224 60.7999871,11.0326531 60.3265288,11.4257143" id="Fill-6"></path>
                            <path d="M99.0315918,8.52 L99.0315918,8.52122449 C99.1024579,8.67244898 99.2026477,8.81204082 99.3236087,8.92346939 C99.5667524,9.14755102 99.8746531,9.25897959 100.181943,9.25897959 C100.523444,9.25897959 100.864334,9.12122449 101.114197,8.85061224 C101.587656,8.33632653 101.555277,7.53122449 101.041499,7.05612245 L99.7359756,5.85 C99.4641189,5.59897959 99.0725231,5.53714286 98.7377422,5.69142857 C98.5165914,5.79306122 98.3479791,5.9755102 98.2630621,6.2044898 C98.178756,6.43346939 98.1885306,6.68142857 98.2899423,6.90306122 L99.0315918,8.52" id="Fill-14"></path>
                            <path d="M127.015115,26.2922449 L127.015115,26.2922449 L123.000189,24.6814286 C122.852959,24.6226531 122.730776,24.4977551 122.655634,24.33 C122.276256,23.4753061 121.43014,22.9242857 120.498496,22.9242857 L120.489333,22.9242857 C119.227185,22.9291837 118.171525,23.9614286 118.135481,25.225102 C118.117765,25.8710204 118.354799,26.4820408 118.803821,26.9442857 C119.252843,27.4077551 119.854593,27.662449 120.498496,27.662449 C120.927969,27.662449 121.347667,27.5461224 121.714215,27.3257143 C121.846173,27.2461224 122.01845,27.2253061 122.187063,27.2681633 L126.395038,28.3334694 C126.48362,28.3561224 126.572814,28.3671429 126.660174,28.3671429 C127.124469,28.3671429 127.546,28.0616327 127.681012,27.5908163 C127.830685,27.0722449 127.538058,26.5016327 127.015115,26.2922449" id="Fill-15"></path>
                            <path d="M104.392362,11.4153061 C104.377089,11.4140816 104.356318,11.4128571 104.333103,11.4116327 L104.332492,11.4116327 C104.234135,11.4073469 104.140054,11.3687755 104.067966,11.3020408 L103.719745,10.9812245 C103.333037,10.6242857 102.745949,10.5997959 102.325029,10.9218367 C101.930989,11.2230612 101.80453,11.7881633 102.023848,12.2663265 C102.099602,12.4322449 102.102656,12.6146939 102.031179,12.7665306 C101.845461,13.1595918 101.773374,13.5991837 101.820414,14.0369388 C101.938931,15.1304082 102.816815,16.0102041 103.906685,16.1283673 C103.992824,16.137551 104.078963,16.142449 104.164491,16.142449 C104.747303,16.142449 105.31362,15.9287755 105.748591,15.537551 C106.247707,15.0887755 106.534226,14.4459184 106.534226,13.7742857 C106.534226,12.5430612 105.612968,11.5291837 104.392362,11.4153061" id="Fill-20"></path>
                            <path d="M110.34022,30.0067347 C109.07685,30.0416327 108.046238,31.1014286 108.042572,32.3687755 C108.041961,32.7759184 108.145817,33.177551 108.343142,33.5302041 C108.812324,34.3683673 109.077461,35.2046939 109.131832,36.0153061 L109.343208,39.1983673 C109.380474,39.7646939 109.844768,40.1957143 110.408031,40.1957143 C110.42086,40.1957143 110.433689,40.1957143 110.446519,40.195102 C110.984734,40.1767347 111.435588,39.7212245 111.472854,39.1585714 L111.682398,36.0159184 C111.736158,35.2046939 112.001295,34.3683673 112.470476,33.5302041 C112.66658,33.1787755 112.770435,32.7795918 112.770435,32.374898 C112.770435,31.7295918 112.516295,31.1265306 112.054444,30.6765306 C111.593204,30.2271429 110.990232,29.9871429 110.34022,30.0067347" id="Fill-23"></path>
                            <path d="M115.112068,15.2106122 C115.542152,15.5773469 116.086476,15.7744898 116.648517,15.7744898 C116.77742,15.7744898 116.906933,15.7640816 117.035836,15.7432653 C117.872177,15.6079592 118.593056,14.9993878 118.872854,14.1930612 C118.973044,13.9028571 119.017641,13.6059184 119.005423,13.3089796 C118.987706,12.8755102 119.125162,12.4304082 119.403739,12.0214286 L126.462238,1.67632653 C126.637571,1.41734694 126.691331,1.09469388 126.608247,0.791020408 C126.525773,0.489795918 126.314397,0.24 126.027268,0.104693878 C125.583744,-0.103469388 125.037587,0.0373469388 124.727854,0.440204082 L116.769478,10.7240816 C116.625302,10.9102041 116.422479,11.0363265 116.199495,11.0791837 C115.087021,11.2910204 114.279393,12.2693878 114.279393,13.4057143 C114.279393,14.1018367 114.583017,14.7593878 115.112068,15.2106122" id="Fill-24"></path>
                        </g>
                        <g id="Group-2">
                            <path d="M24.913681,34.0787755 C24.715134,34.2397959 24.5171979,34.3206122 24.3198727,34.3206122 L19.4533323,34.3206122 C19.1063332,34.3206122 18.8405856,34.2771429 18.6548678,34.1902041 C18.46915,34.1032653 18.2767121,33.9483673 18.078776,33.724898 C18.0537285,33.6753061 17.9358221,33.5081633 17.7262786,33.2222449 C17.5155133,32.9369388 17.1373576,32.6822449 16.5930333,32.4593878 C16.048098,32.2353061 15.3913656,32.1238776 14.6240577,32.1238776 C13.5592347,32.1238776 12.6618021,32.2671429 11.9311491,32.5518367 C11.200496,32.8377551 10.7612489,33.3281633 10.6127968,34.022449 C10.5877493,34.0971429 10.5755311,34.2085714 10.5755311,34.3579592 C10.5755311,34.7546939 10.7856854,35.0895918 11.2072161,35.3626531 C11.6275248,35.6363265 12.2659299,35.8904082 13.1199876,36.1261224 C13.9740453,36.362449 15.317445,36.6783673 17.1501868,37.075102 C19.3794117,37.5471429 21.0441522,38.2793878 22.1462409,39.2718367 C23.2483296,40.264898 23.799374,41.5928571 23.799374,43.255102 C23.799374,43.8508163 23.7248425,44.5083673 23.5763904,45.2283673 C23.0314552,47.7593878 21.6758372,49.6830612 19.5089255,50.9981633 C17.3420138,52.3138776 14.4261216,52.9714286 10.7612489,52.9714286 C8.8539756,52.9714286 7.10248536,52.5991837 5.50494543,51.8540816 C3.9074055,51.1102041 2.66297382,50.1416327 1.7716504,48.9508163 C0.880326974,47.7593878 0.483843833,46.5312245 0.583422804,45.265102 C0.632295918,45.0416327 0.755700532,44.85 0.95424756,44.6883673 C1.15218367,44.5273469 1.35011979,44.4459184 1.54866681,44.4459184 L6.41520719,44.4459184 C6.98457897,44.4459184 7.41832786,44.6197959 7.71523203,44.967551 C7.76471606,45.0416327 7.91927728,45.2595918 8.17952662,45.6189796 C8.43916504,45.9789796 8.86008474,46.3016327 9.44228571,46.5869388 C10.0238758,46.8722449 10.7612489,47.014898 11.6525723,47.014898 C14.7230257,47.014898 16.4073154,46.3573469 16.7048305,45.0416327 C16.8031877,44.5953061 16.6425173,44.2169388 16.2215976,43.9065306 C15.800067,43.5967347 15.1567746,43.3236735 14.2898878,43.0873469 C13.4230009,42.8516327 12.0612737,42.5357143 10.2040954,42.1383673 L9.38669255,41.9522449 C5.47378882,41.0834694 3.51764241,39.0612245 3.51764241,35.8836735 C3.51764241,35.2640816 3.591563,34.5808163 3.740626,33.8363265 C4.21102972,31.5532653 5.43652307,29.7042857 7.41832786,28.29 C9.39891083,26.875102 12.0985395,26.1673469 15.515992,26.1673469 C17.3976069,26.1673469 19.100835,26.5463265 20.6232325,27.3030612 C22.1462409,28.0604082 23.3222502,29.0093878 24.1524823,30.1512245 C24.9821034,31.292449 25.3596482,32.4097959 25.2851167,33.5014286 C25.2356327,33.724898 25.1116171,33.9171429 24.913681,34.0787755" id="Fill-7"></path>
                            <path d="M40.1657582,41.2077551 C40.1657582,39.4946939 39.2744348,38.6387755 37.491177,38.6387755 C36.4752272,38.6387755 35.6394969,38.9246939 34.9839862,39.4946939 C34.3272538,40.0659184 33.8507409,40.7736735 33.5538367,41.6167347 C33.4047737,42.0140816 33.27526,42.5106122 33.1634627,43.1057143 C33.0522764,43.7014286 32.9966832,44.1857143 32.9966832,44.5579592 C32.9966832,45.327551 33.2062267,45.96 33.6277573,46.4565306 C34.048677,46.9530612 34.7298461,47.2010204 35.6712644,47.2010204 C36.7354765,47.2010204 37.5962542,46.9028571 38.2523758,46.3077551 C38.9084973,45.7120408 39.3856211,44.9302041 39.6825253,43.9622449 C39.9055089,43.3169388 40.053961,42.6220408 40.1284925,41.877551 C40.152929,41.7287755 40.1657582,41.5053061 40.1657582,41.2077551 Z M29.9134006,58.6671429 C29.8633057,58.9402041 29.7209627,59.1753061 29.4863718,59.3742857 C29.250559,59.5726531 28.9970297,59.6718367 28.7245621,59.6718367 L24.0443505,59.6718367 C23.7718829,59.6718367 23.5556193,59.5726531 23.3937272,59.3742857 C23.2330568,59.1753061 23.1774636,58.9402041 23.2269476,58.6671429 L28.4276579,34.2459184 C28.4765311,33.9728571 28.618874,33.7377551 28.8546868,33.5387755 C29.0898886,33.3404082 29.3434179,33.2406122 29.6164965,33.2406122 L34.1103793,33.2406122 C34.3828469,33.2406122 34.5997214,33.3404082 34.7610027,33.5387755 C34.921673,33.7377551 34.9772662,33.9728571 34.9277822,34.2459184 L34.7420643,35.102449 C34.8410324,35.0032653 35.0890634,34.7302041 35.4849357,34.2832653 C35.8808079,33.8363265 36.4568997,33.4891837 37.2126003,33.2406122 C37.9676899,32.9932653 38.9029991,32.8683673 40.0166952,32.8683673 C41.1810972,32.8683673 42.2947933,33.1359184 43.3602272,33.6691837 C44.4244392,34.2030612 45.2974352,34.9971429 45.9792152,36.0514286 C46.6597733,37.1063265 47.0006633,38.3779592 47.0006633,39.867551 C47.0006633,40.4877551 46.9505683,41.0583673 46.8516003,41.58 C46.7275847,42.3985714 46.5180413,43.4038776 46.2205262,44.5953061 C45.4776548,47.4991837 44.3260821,49.6206122 42.7658079,50.9608163 C41.2055337,52.3010204 39.1125426,52.9714286 36.4880563,52.9714286 C35.2002498,52.9714286 34.1354268,52.7418367 33.2935874,52.2826531 C32.451748,51.8234694 31.8939836,51.3085714 31.6221269,50.7379592 L29.9134006,58.6671429 L29.9134006,58.6671429 Z" id="Fill-8"></path>
                            <path d="M54.6297564,44.6320408 C54.6297564,46.3444898 55.5210799,47.2010204 57.3043376,47.2010204 C58.3196766,47.2010204 59.1431886,46.9157143 59.7748736,46.3444898 C60.4059476,45.7744898 60.8702422,45.0667347 61.1677573,44.222449 C61.3162094,43.8012245 61.4463341,43.2918367 61.5575204,42.6967347 C61.6693177,42.1010204 61.7249108,41.6167347 61.7249108,41.2444898 C61.7249108,40.5 61.5202547,39.8797959 61.1121642,39.3832653 C60.7034627,38.8873469 60.0406211,38.6387755 59.1242502,38.6387755 C58.0594272,38.6387755 57.1986495,38.9363265 56.5431389,39.5320408 C55.8864064,40.1277551 55.4098935,40.9095918 55.1123784,41.877551 C54.8900058,42.5234694 54.7409428,43.2177551 54.6670222,43.9622449 C54.6419747,44.1110204 54.6297564,44.3344898 54.6297564,44.6320408 Z M63.3218398,34.2459184 C63.3713239,33.9728571 63.5136668,33.7377551 63.7494796,33.5387755 C63.9840705,33.3404082 64.2375998,33.2406122 64.5106783,33.2406122 L69.19089,33.2406122 C69.4633576,33.2406122 69.680232,33.3404082 69.8415133,33.5387755 C70.0021837,33.7377551 70.0577768,33.9728571 70.0082928,34.2459184 L66.3678567,51.5938776 C66.3183727,51.8669388 66.1760297,52.1026531 65.9408279,52.3010204 C65.7050151,52.5 65.4514858,52.5991837 65.1790182,52.5991837 L60.4615408,52.5991837 C60.1890732,52.5991837 59.9721988,52.5 59.8115284,52.3010204 C59.6502471,52.1026531 59.5946539,51.8669388 59.6447489,51.5938776 L59.8304667,50.7379592 C59.4089361,51.4328571 58.7839712,51.9789796 57.95435,52.3757143 C57.124118,52.772449 55.9419996,52.9714286 54.4067728,52.9714286 C53.2674184,52.9714286 52.1903771,52.7106122 51.1750382,52.1895918 C50.1590883,51.6685714 49.3422964,50.8928571 48.7234406,49.862449 C48.1045847,48.8332653 47.7948514,47.5861224 47.7948514,46.1216327 C47.7948514,45.4763265 47.8443354,44.8555102 47.9439144,44.2604082 C48.067319,43.4412245 48.2774734,42.4359184 48.5749885,41.2444898 C49.2928123,38.4404082 50.5066983,36.3434694 52.2154246,34.9530612 C53.9241508,33.5638776 55.9542178,32.8683673 58.3074583,32.8683673 C59.5946539,32.8683673 60.6533678,33.0985714 61.4835998,33.5571429 C62.31261,34.0169388 62.8636544,34.5312245 63.136122,35.102449 L63.3218398,34.2459184 L63.3218398,34.2459184 Z" id="Fill-9"></path>
                            <path d="M87.7266295,33.5387755 C87.8750816,33.7377551 87.9245657,33.9728571 87.8750816,34.2459184 L87.0949445,38.0057143 C87.0454605,38.2793878 86.8970084,38.515102 86.6495883,38.7128571 C86.4015572,38.912449 86.1419188,39.0110204 85.8694512,39.0110204 L82.4892644,39.0110204 C81.3749574,39.0110204 80.4646957,39.3030612 79.7590901,39.8859184 C79.0528736,40.4693878 78.5891899,41.3191837 78.3655954,42.4359184 L76.3972307,51.5938776 C76.3471358,51.8669388 76.2047928,52.1026531 75.9695909,52.3010204 C75.7343891,52.5 75.4808598,52.5991837 75.2083922,52.5991837 L70.5281806,52.5991837 C70.255102,52.5991837 70.0388385,52.5 69.8781681,52.3010204 C69.7168869,52.1026531 69.6612937,51.8669388 69.7107777,51.5938776 L73.3884796,34.2459184 C73.4373527,33.9728571 73.5864157,33.7377551 73.8338358,33.5387755 C74.081256,33.3404082 74.3415053,33.2406122 74.6139729,33.2406122 L78.9227489,33.2406122 C79.1952165,33.2406122 79.4059818,33.3404082 79.5544339,33.5387755 C79.702886,33.7377551 79.75237,33.9728571 79.702886,34.2459184 L79.5177791,35.102449 C80.136024,34.4822449 80.8233021,34.0169388 81.5790027,33.7059184 C82.3340923,33.3961224 83.3066673,33.2406122 84.4948949,33.2406122 L87.0949445,33.2406122 C87.3674122,33.2406122 87.5781775,33.3404082 87.7266295,33.5387755" id="Fill-10"></path>
                            <path d="M100.835621,33.8736735 C101.379945,33.4518367 101.913273,33.2406122 102.433161,33.2406122 L108.636381,33.2406122 C108.834317,33.2406122 108.989489,33.3030612 109.100675,33.4267347 C109.212472,33.5516327 109.268066,33.7126531 109.268066,33.9110204 C109.268066,34.2336735 109.14405,34.5067347 108.89663,34.7302041 L99.6840479,43.0316327 L105.107742,50.9981633 C105.28063,51.2718367 105.355162,51.5069388 105.330725,51.7053061 C105.28063,51.9538776 105.150506,52.165102 104.940351,52.3383673 C104.729586,52.5122449 104.500493,52.5991837 104.253073,52.5991837 L99.3871437,52.5991837 C98.767677,52.5991837 98.3101025,52.3885714 98.0125874,51.9661224 L93.5180936,45.302449 L92.180803,51.5938776 C92.1307081,51.8669388 91.9883651,52.1026531 91.7531633,52.3010204 C91.5179614,52.5 91.2644321,52.5991837 90.9919645,52.5991837 L86.3117529,52.5991837 C86.0386744,52.5991837 85.8224108,52.5 85.6617405,52.3010204 C85.5004592,52.1026531 85.444866,51.8669388 85.49435,51.5938776 L90.6950603,27.1726531 C90.7445444,26.9002041 90.8862764,26.6644898 91.1220892,26.4655102 C91.3566801,26.2671429 91.6108203,26.1673469 91.8832879,26.1673469 L96.5641105,26.1673469 C96.8359672,26.1673469 97.0528416,26.2671429 97.2141229,26.4655102 C97.3747933,26.6644898 97.4303864,26.9002041 97.3809024,27.1726531 L94.8181185,39.2344898 L100.835621,33.8736735" id="Fill-11"></path>
                            <path d="M114.898859,59.6718367 L109.624228,59.6718367 C109.401245,59.6718367 109.221025,59.6038776 109.085402,59.4673469 C108.949169,59.3308163 108.881357,59.1630612 108.881357,58.9646939 C108.881357,58.8655102 108.930841,58.7161224 109.029809,58.5183673 L113.413117,51.6685714 L109.586963,34.3946939 C109.512431,34.0971429 109.599181,33.8308163 109.847212,33.5944898 C110.094021,33.3587755 110.379318,33.2406122 110.70127,33.2406122 L115.418747,33.2406122 C115.914198,33.2406122 116.211102,33.5387755 116.310681,34.1338776 L118.390232,43.8134694 L124.519532,34.1338776 C124.891579,33.5387755 125.311887,33.2406122 125.782902,33.2406122 L131.094799,33.2406122 C131.317782,33.2406122 131.49678,33.3091837 131.633014,33.4457143 C131.769248,33.5822449 131.83767,33.75 131.83767,33.9483673 C131.83767,34.047551 131.787575,34.1969388 131.689218,34.3946939 L116.162229,58.7785714 C115.790183,59.3742857 115.369263,59.6718367 114.898859,59.6718367" id="Fill-12"></path>
                            <path d="M146.083572,39.1414286 C145.905185,38.8671429 145.82821,38.5561224 145.867308,38.2653061 C145.907018,37.9677551 145.88869,37.6659184 145.812937,37.3683673 C145.567961,36.4095918 144.71207,35.6816327 143.731553,35.5971429 C143.061381,35.5395918 142.418699,35.7581633 141.925692,36.2118367 C141.438793,36.6593878 141.159606,37.2961224 141.159606,37.9573469 C141.159606,39.0502041 141.898201,39.9961224 142.955693,40.257551 C143.283753,40.3383673 143.554999,40.5012245 143.741328,40.7277551 L147.785578,45.6495918 C147.996343,45.9091837 148.303633,46.0463265 148.615199,46.0463265 C148.815579,46.0463265 149.017791,45.9893878 149.1974,45.8718367 C149.688575,45.5497959 149.826642,44.8873469 149.505301,44.395102 L146.083572,39.1414286" id="Fill-13"></path>
                            <path d="M118.572285,24.3826531 L124.650878,26.8212245 C124.860422,26.9032653 125.033311,27.0495918 125.136555,27.2338776 C125.558697,27.9826531 126.342499,28.4387755 127.195946,28.4387755 C127.220993,28.4387755 127.246041,28.4387755 127.271088,28.4381633 C128.497193,28.3989796 129.523528,27.3679592 129.55835,26.1385714 C129.576677,25.4926531 129.339032,24.8816327 128.890621,24.4187755 C128.441599,23.9559184 127.839238,23.7006122 127.195335,23.7006122 C126.819012,23.7006122 126.458573,23.7881633 126.124403,23.9595918 C125.986336,24.0306122 125.827499,24.0440816 125.688821,23.9969388 C125.651555,23.9840816 125.613068,23.972449 125.573969,23.9626531 L119.229628,22.3555102 C118.714017,22.225102 118.176413,22.4993878 117.978476,22.9946939 C117.872788,23.2591837 117.876454,23.5493878 117.988862,23.8120408 C118.100659,24.0740816 118.30837,24.2767347 118.572285,24.3826531" id="Fill-16"></path>
                            <path d="M138.740997,16.8814286 L138.350623,1.27163265 C138.343292,0.982653061 138.22172,0.715102041 138.010344,0.517959184 C137.799579,0.320816327 137.520391,0.220408163 137.236927,0.233265306 C136.682217,0.258979592 136.236861,0.735306122 136.221588,1.31755102 L135.833658,16.8759184 C135.829992,17.0265306 135.760348,17.1759184 135.636333,17.2959184 C135.165318,17.7563265 134.9124,18.3722449 134.923396,19.0304082 C134.944167,20.28 135.97539,21.3244898 137.221043,21.3581633 C137.243036,21.3587755 137.26564,21.3593878 137.287633,21.3593878 C137.9071,21.3593878 138.489912,21.122449 138.935268,20.6883673 C139.396508,20.2383673 139.650648,19.6353061 139.650648,18.9906122 C139.650648,18.3453061 139.395897,17.7422449 138.932824,17.2922449 C138.812474,17.1746939 138.744052,17.0289796 138.740997,16.8814286" id="Fill-19"></path>
                            <path d="M160.287321,22.0855102 L160.287321,22.0855102 C160.228673,21.5853061 159.777208,21.2253061 159.275647,21.2840816 L157.510106,21.4916327 C157.344548,21.5118367 157.181434,21.565102 157.03848,21.6453061 C156.743409,21.8112245 156.5302,22.082449 156.438563,22.4087755 C156.347537,22.7357143 156.388468,23.0779592 156.554026,23.3736735 C156.719583,23.6693878 156.990218,23.8830612 157.315835,23.974898 C157.429465,24.0067347 157.545539,24.0226531 157.660391,24.0226531 C157.874822,24.0226531 158.086809,23.967551 158.278636,23.8597959 L159.828524,22.9885714 C160.149865,22.8067347 160.330085,22.4522449 160.287321,22.0855102" id="Fill-21"></path>
                            <path d="M153.273418,23.0295918 L149.067276,24.094898 C148.899274,24.1377551 148.725775,24.117551 148.594428,24.0379592 C148.22788,23.817551 147.808182,23.7006122 147.378709,23.7006122 C146.734806,23.7006122 146.133056,23.9559184 145.683423,24.4187755 C145.235012,24.8816327 144.997978,25.4926531 145.015694,26.1385714 C145.051738,27.4022449 146.108008,28.4344898 147.370157,28.4387755 L147.378709,28.4387755 C148.310353,28.4387755 149.156469,27.8883673 149.536457,27.0330612 C149.610989,26.8659184 149.733172,26.7410204 149.881013,26.6816327 L153.930761,25.0567347 C154.42438,24.8589796 154.698069,24.3195918 154.567945,23.8022449 C154.423158,23.2316327 153.841568,22.8857143 153.273418,23.0295918" id="Fill-22"></path>
                        </g>
                    </g>
                </g>
            </g>
        </g>
    </g>
</svg>