<?xml version="1.0" encoding="UTF-8"?>
<svg width="307px" height="55px" viewBox="0 0 307 55" version="1.1" xmlns="http://www.w3.org/2000/svg" xmlns:xlink="http://www.w3.org/1999/xlink">
    <!-- Generator: Sketch 49 (51002) - http://www.bohemiancoding.com/sketch -->
    <title>rea_logo</title>
    <desc>Created with Sketch.</desc>
    <defs></defs>
    <g id="Page-1" stroke="none" stroke-width="1" fill="none" fill-rule="evenodd">
        <g id="Home-1" transform="translate(-523.000000, -1953.000000)">
            <g id="rea_logo" transform="translate(522.000000, 1953.000000)">
                <path d="M28.7186403,-0.000244444445 C13.9284708,-0.000244444445 1.89743503,12.0569778 1.81860264,26.9986444 C1.73370621,41.9953111 13.7162298,54.2175333 28.5791676,54.2908667 C43.4481695,54.3764222 55.5519736,42.2886444 55.630806,27.2919778 C55.7096384,12.2892 43.7331789,0.0730888889 28.8702411,-0.000244444445 L28.7186403,-0.000244444445 Z" id="Fill-1" fill="#E4002B"></path>
                <path d="M28.7271299,6.61808889 C28.0722147,6.61808889 27.4779397,6.8992 27.0716497,7.35142222 L11.0808023,23.4175333 C10.4622712,24.0469778 10.0863013,24.9147556 10.0863013,25.8680889 C10.0863013,27.7869778 11.626565,29.3453111 13.5246064,29.3514222 L15.7258493,29.3453111 C15.7258493,29.3453111 15.7137213,41.5430889 15.7137213,41.5736444 C15.7137213,42.8325333 16.7203503,43.8469778 17.9695405,43.8592 L39.4907834,43.8592 C40.7278456,43.8469778 41.7344746,42.8325333 41.7344746,41.5736444 C41.7344746,41.5430889 41.7284105,29.3453111 41.7284105,29.3453111 L43.9296535,29.3514222 C45.8337589,29.3453111 47.3740226,27.7869778 47.3740226,25.8680889 C47.3740226,24.9147556 46.9919887,24.0469778 46.3734576,23.4175333 L30.3886742,7.35142222 C29.9763202,6.8992 29.3881092,6.61808889 28.733194,6.61808889 L28.7271299,6.61808889 Z M28.733194,11.6964222 L42.1347006,25.1530889 L37.5139096,25.1530889 L37.5139096,39.6058667 L19.9403503,39.6058667 L19.9403503,25.1530889 L15.3195593,25.1530889 L28.733194,11.6964222 Z" id="Fill-4" fill="#FFFFFF"></path>
                <path d="M74.0533296,18.0348667 L74.0533296,20.4609778 C74.0533296,20.8337556 73.744064,21.1332 73.3802222,21.1332 C71.5731412,21.1332 70.1723503,21.6159778 68.7715593,22.3432 L68.7715593,35.8854222 C68.7715593,36.2459778 68.4683578,36.5882 68.104516,36.5882 L65.0300527,36.5882 C64.672275,36.5882 64.3630094,36.2459778 64.3630094,35.8854222 L64.3630094,18.2793111 C64.3630094,17.9004222 64.672275,17.5948667 65.0300527,17.5948667 L67.9407872,17.5948667 C68.298565,17.5948667 68.6078305,17.9004222 68.6078305,18.2793111 L68.6078305,18.9759778 C70.2329906,17.7048667 72.0400716,17.3626444 73.3802222,17.3626444 C73.744064,17.3626444 74.0533296,17.6682 74.0533296,18.0348667 L74.0533296,18.0348667 Z M102.378414,32.3776444 C101.408169,32.9215333 100.171107,33.3248667 98.9704294,33.3248667 C97.3088851,33.3248667 96.5751375,32.8909778 96.5751375,31.2348667 L96.5751375,31.1004222 C96.5751375,29.2182 97.2361168,28.2404222 100.274196,28.2404222 L102.378414,28.2404222 L102.378414,32.3776444 Z M99.4494878,17.3626444 C97.1330282,17.3626444 95.2046667,17.6315333 93.87058,17.9004222 C93.4339699,17.9982 93.2399209,18.2304222 93.2399209,18.6032 L93.2399209,20.7604222 C93.2399209,21.2309778 93.5006742,21.3409778 93.8341959,21.3409778 L94.0039887,21.3409778 C95.1015782,21.2004222 97.3088851,21.0720889 99.4494878,21.0720889 C101.408169,21.0720889 102.378414,21.6159778 102.378414,23.7976444 L102.378414,25.2704222 L100.274196,25.2704222 C94.464855,25.2704222 92.1302034,27.2687556 92.1302034,31.1004222 L92.1302034,31.2348667 C92.1302034,35.7815333 95.1440264,36.8632 97.9031601,36.8632 C99.5101281,36.8632 101.074648,36.3132 102.608847,35.3782 L102.608847,35.9220889 C102.608847,36.2826444 102.918113,36.5882 103.275891,36.5882 L106.119921,36.5882 C106.477699,36.5882 106.7809,36.2826444 106.7809,35.9220889 L106.7809,23.7976444 C106.7809,19.4832 104.185495,17.3626444 99.4494878,17.3626444 L99.4494878,17.3626444 Z M210.045269,32.1148667 L210.045269,35.9220889 C210.045269,36.2826444 209.754196,36.5882 209.378226,36.5882 L206.418979,36.5882 C206.049073,36.5882 205.745872,36.2826444 205.745872,35.9220889 L205.745872,32.1148667 C205.745872,31.7482 206.049073,31.4732 206.418979,31.4732 L209.378226,31.4732 C209.754196,31.4732 210.045269,31.7482 210.045269,32.1148667 L210.045269,32.1148667 Z M223.82881,18.6765333 L223.82881,20.8643111 C223.82881,21.2004222 223.568056,21.3715333 223.234535,21.3715333 L223.131446,21.3715333 C221.79736,21.2004222 221.002972,21.1332 218.825985,21.1332 C217.255401,21.1332 215.618113,22.0437556 215.618113,25.5454222 L215.618113,28.6804222 C215.618113,32.1759778 217.255401,33.0926444 218.825985,33.0926444 C221.002972,33.0926444 221.79736,33.0193111 223.131446,32.8604222 L223.234535,32.8604222 C223.568056,32.8604222 223.82881,33.0193111 223.82881,33.3493111 L223.82881,35.5432 C223.82881,36.0870889 223.701465,36.2826444 223.131446,36.4232 C222.361315,36.6248667 220.851371,36.8632 218.825985,36.8632 C214.490203,36.8632 211.221691,34.1682 211.221691,28.6804222 L211.221691,25.5454222 C211.221691,20.0576444 214.490203,17.3626444 218.825985,17.3626444 C220.851371,17.3626444 222.361315,17.5948667 223.131446,17.7965333 C223.701465,17.9370889 223.82881,18.1387556 223.82881,18.6765333 L223.82881,18.6765333 Z M307.294121,18.3098667 L307.294121,35.9220889 C307.294121,36.2826444 306.996983,36.5882 306.633141,36.5882 L303.552614,36.5882 C303.188772,36.5882 302.891635,36.2826444 302.891635,35.9220889 L302.891635,35.1398667 C301.151258,36.2826444 299.780787,36.8204222 297.646249,36.8204222 C295.97864,36.8204222 294.511145,36.3865333 293.534836,35.4087556 C292.303838,34.1682 291.873292,32.0782 291.873292,29.2854222 L291.873292,18.3098667 C291.873292,17.9370889 292.170429,17.5948667 292.540335,17.5948667 L295.608734,17.5948667 C295.97864,17.5948667 296.275778,17.9370889 296.275778,18.3098667 L296.275778,29.2854222 C296.275778,30.9720889 296.41525,31.9315333 297.04591,32.5120889 C297.518904,32.9215333 298.082859,33.1170889 299.119808,33.1170889 C300.35687,33.1170889 301.95171,32.2920889 302.891635,31.7787556 L302.891635,18.3098667 C302.891635,17.9370889 303.188772,17.5948667 303.552614,17.5948667 L306.633141,17.5948667 C306.996983,17.5948667 307.294121,17.9370889 307.294121,18.3098667 L307.294121,18.3098667 Z M273.456832,32.1148667 L273.456832,35.9220889 C273.456832,36.2826444 273.153631,36.5882 272.789789,36.5882 L269.818414,36.5882 C269.460637,36.5882 269.145307,36.2826444 269.145307,35.9220889 L269.145307,32.1148667 C269.145307,31.7482 269.460637,31.4732 269.818414,31.4732 L272.789789,31.4732 C273.153631,31.4732 273.456832,31.7482 273.456832,32.1148667 L273.456832,32.1148667 Z M267.25333,24.4393111 L267.25333,35.8854222 C267.25333,36.2459778 266.962256,36.5882 266.586286,36.5882 L263.511823,36.5882 C263.154045,36.5882 262.84478,36.2459778 262.84478,35.8854222 L262.84478,24.4393111 C262.84478,21.8420889 262.311145,21.1698667 260.443424,21.1698667 C259.806701,21.1698667 258.545382,21.3715333 257.344704,22.0070889 C257.441729,22.7526444 257.472049,23.5898667 257.472049,24.4393111 L257.472049,35.8854222 C257.472049,36.2459778 257.174911,36.5882 256.805006,36.5882 L253.736606,36.5882 C253.366701,36.5882 253.069563,36.2459778 253.069563,35.8854222 L253.069563,24.4393111 C253.069563,21.8420889 252.626889,21.1698667 250.771296,21.1698667 C250.061804,21.1698667 249.055175,21.5365333 247.690768,22.2820889 L247.690768,35.8854222 C247.690768,36.2459778 247.393631,36.5882 247.023725,36.5882 L243.96139,36.5882 C243.58542,36.5882 243.288282,36.2459778 243.288282,35.8854222 L243.288282,18.2793111 C243.288282,17.9004222 243.58542,17.5948667 243.96139,17.5948667 L246.86606,17.5948667 C247.229902,17.5948667 247.520976,17.9004222 247.520976,18.2793111 L247.520976,18.9759778 C248.933895,18.0715333 250.328621,17.3626444 252.305495,17.3626444 C254.203537,17.3626444 255.434535,17.9370889 256.204667,18.8720889 C257.902595,17.9370889 259.406475,17.3626444 261.710806,17.3626444 C266.240637,17.3626444 267.25333,20.4976444 267.25333,24.4393111 L267.25333,24.4393111 Z M285.275627,32.3776444 C284.311446,32.9215333 283.074384,33.3248667 281.867642,33.3248667 C280.19397,33.3248667 279.466286,32.8909778 279.466286,31.2348667 L279.466286,31.1004222 C279.466286,29.2182 280.139394,28.2404222 283.177473,28.2404222 L285.275627,28.2404222 L285.275627,32.3776444 Z M282.346701,17.3626444 C280.036305,17.3626444 278.101879,17.6315333 276.767793,17.9004222 C276.337247,17.9982 276.13107,18.2304222 276.13107,18.6032 L276.13107,20.7604222 C276.13107,21.2309778 276.397887,21.3409778 276.731409,21.3409778 L276.889073,21.3409778 C277.998791,21.2004222 280.19397,21.0720889 282.346701,21.0720889 C284.311446,21.0720889 285.275627,21.6159778 285.275627,23.7976444 L285.275627,25.2704222 L283.177473,25.2704222 C277.368132,25.2704222 275.039544,27.2687556 275.039544,31.1004222 L275.039544,31.2348667 C275.039544,35.7815333 278.035175,36.8632 280.806437,36.8632 C282.401277,36.8632 283.977925,36.3132 285.512124,35.3782 L285.512124,35.9220889 C285.512124,36.2826444 285.803198,36.5882 286.16704,36.5882 L289.01107,36.5882 C289.380976,36.5882 289.690241,36.2826444 289.690241,35.9220889 L289.690241,23.7976444 C289.690241,19.4832 287.07058,17.3626444 282.346701,17.3626444 L282.346701,17.3626444 Z M236.981691,28.4726444 C236.981691,31.2348667 235.744629,33.0193111 233.409977,33.0193111 C231.075326,33.0193111 229.844328,31.2348667 229.844328,28.4726444 L229.844328,25.7470889 C229.844328,22.9909778 231.075326,21.2004222 233.409977,21.2004222 C235.744629,21.2004222 236.981691,22.9909778 236.981691,25.7470889 L236.981691,28.4726444 Z M233.409977,17.3626444 C228.176719,17.3626444 225.435778,20.9376444 225.435778,25.7470889 L225.435778,28.4726444 C225.435778,33.2820889 228.176719,36.8632 233.409977,36.8632 C238.655363,36.8632 241.378113,33.2820889 241.378113,28.4726444 L241.378113,25.7470889 C241.378113,20.9376444 238.655363,17.3626444 233.409977,17.3626444 L233.409977,17.3626444 Z M200.009299,25.4843111 L192.932576,25.4843111 L192.932576,25.3376444 C192.932576,22.6732 194.44252,21.2004222 196.50429,21.2004222 C198.56606,21.2004222 200.009299,22.7159778 200.009299,25.3376444 L200.009299,25.4843111 Z M196.50429,17.3626444 C191.398377,17.3626444 188.493706,20.6565333 188.493706,25.9182 L188.493706,28.4054222 C188.493706,35.0420889 193.229714,36.8632 196.570994,36.8632 C199.572689,36.8632 200.870392,36.6859778 203.047379,36.2826444 C203.647718,36.1909778 203.750806,35.9465333 203.750806,35.4087556 L203.750806,33.1843111 C203.750806,32.8604222 203.477925,32.6770889 203.150467,32.6770889 L203.047379,32.6770889 C201.63446,32.8176444 199.342256,33.0193111 196.898452,33.0193111 C193.702708,33.0193111 192.890128,30.6970889 192.890128,28.7415333 L192.890128,28.6437556 L203.775062,28.6437556 C204.248056,28.6437556 204.442105,28.3382 204.442105,27.8004222 L204.442105,25.9182 C204.442105,20.9009778 201.63446,17.3626444 196.50429,17.3626444 L196.50429,17.3626444 Z M146.372953,31.6076444 C146.372953,34.5348667 144.214158,36.8632 139.848056,36.8632 C138.532162,36.8632 135.73058,36.6859778 133.862859,36.1909778 C133.456569,36.0870889 133.226136,35.8120889 133.226136,35.4087556 L133.226136,33.3982 C133.226136,33.1170889 133.456569,32.8604222 133.79009,32.8604222 L133.929563,32.8604222 C135.536531,33.0559778 138.532162,33.2270889 139.532727,33.2270889 C141.606625,33.2270889 141.909827,32.5120889 141.909827,31.6076444 C141.909827,30.9720889 141.503537,30.5687556 140.442331,29.8720889 L135.863989,27.0609778 C134.226701,26.0526444 133.056343,24.3659778 133.056343,22.4104222 C133.056343,19.0432 135.166625,17.3626444 139.405382,17.3626444 C142.103876,17.3626444 143.644139,17.6682 145.348132,18.0348667 C145.73623,18.1387556 145.942407,18.4076444 145.942407,18.8109778 L145.942407,20.7604222 C145.942407,21.1698667 145.73623,21.4082 145.414836,21.4082 L145.281427,21.4082 C144.335439,21.2676444 141.667266,20.9987556 139.76316,20.9987556 C138.162256,20.9987556 137.470957,21.3715333 137.470957,22.4104222 C137.470957,22.9543111 137.968207,23.2904222 138.798979,23.7976444 L143.171145,26.4926444 C145.972727,28.2098667 146.372953,29.8720889 146.372953,31.6076444 L146.372953,31.6076444 Z M113.511974,11.6365333 L113.511974,35.8854222 C113.511974,36.2459778 113.245156,36.5882 112.881315,36.5882 L109.776531,36.5882 C109.406625,36.5882 109.109488,36.2459778 109.109488,35.8854222 L109.109488,11.6365333 C109.109488,11.2637556 109.406625,10.9704222 109.776531,10.9704222 L112.881315,10.9704222 C113.245156,10.9704222 113.511974,11.2637556 113.511974,11.6365333 L113.511974,11.6365333 Z M127.052953,25.4843111 L119.982294,25.4843111 L119.982294,25.3376444 C119.982294,22.6732 121.474045,21.2004222 123.535815,21.2004222 C125.621842,21.2004222 127.052953,22.7159778 127.052953,25.3376444 L127.052953,25.4843111 Z M123.535815,17.3626444 C118.448094,17.3626444 115.543424,20.6565333 115.543424,25.9182 L115.543424,28.4054222 C115.543424,35.0420889 120.285495,36.8632 123.614648,36.8632 C126.616343,36.8632 127.920109,36.6859778 130.091032,36.2826444 C130.691371,36.1909778 130.788395,35.9465333 130.788395,35.4087556 L130.788395,33.1843111 C130.788395,32.8604222 130.515514,32.6770889 130.188056,32.6770889 L130.091032,32.6770889 C128.684177,32.8176444 126.38591,33.0193111 123.954234,33.0193111 C120.740298,33.0193111 119.94591,30.6970889 119.94591,28.7415333 L119.94591,28.6437556 L130.830844,28.6437556 C131.285646,28.6437556 131.491823,28.3382 131.491823,27.8004222 L131.491823,25.9182 C131.491823,20.9009778 128.684177,17.3626444 123.535815,17.3626444 L123.535815,17.3626444 Z M170.374384,32.3776444 C169.416267,32.9215333 168.173141,33.3248667 166.972463,33.3248667 C165.298791,33.3248667 164.571107,32.8909778 164.571107,31.2348667 L164.571107,31.1004222 C164.571107,29.2182 165.226023,28.2404222 168.264102,28.2404222 L170.374384,28.2404222 L170.374384,32.3776444 Z M167.43333,17.3626444 C165.135062,17.3626444 163.200637,17.6315333 161.860486,17.9004222 C161.42994,17.9982 161.223763,18.2304222 161.223763,18.6032 L161.223763,20.7604222 C161.223763,21.2309778 161.496644,21.3409778 161.83623,21.3409778 L161.999959,21.3409778 C163.103612,21.2004222 165.298791,21.0720889 167.43333,21.0720889 C169.416267,21.0720889 170.374384,21.6159778 170.374384,23.7976444 L170.374384,25.2704222 L168.264102,25.2704222 C162.460825,25.2704222 160.132237,27.2687556 160.132237,31.1004222 L160.132237,31.2348667 C160.132237,35.7815333 163.127868,36.8632 165.89913,36.8632 C167.506098,36.8632 169.064554,36.3132 170.610881,35.3782 L170.610881,35.9220889 C170.610881,36.2826444 170.901955,36.5882 171.277925,36.5882 L174.109827,36.5882 C174.485797,36.5882 174.77687,36.2826444 174.77687,35.9220889 L174.77687,23.7976444 C174.77687,19.4832 172.175401,17.3626444 167.43333,17.3626444 L167.43333,17.3626444 Z M159.02252,33.8993111 L159.02252,36.0076444 C159.02252,36.3559778 158.834535,36.5515333 158.391861,36.6248667 C157.591409,36.7532 156.851597,36.8632 156.117849,36.8632 C152.346023,36.8632 150.817887,36.0076444 150.817887,31.5098667 L150.817887,20.9376444 L147.676719,20.4609778 C147.312878,20.3998667 147.01574,20.1554222 147.01574,19.7887556 L147.01574,18.2793111 C147.01574,17.9004222 147.312878,17.5948667 147.676719,17.5948667 L150.817887,17.5948667 L150.817887,13.1398667 C150.817887,12.7732 151.115024,12.5348667 151.478866,12.4676444 L154.577586,11.9359778 L154.717058,11.9359778 C155.014196,11.9359778 155.256757,12.1009778 155.256757,12.4370889 L155.256757,17.5948667 L158.258452,17.5948667 C158.61623,17.5948667 158.925495,17.9004222 158.925495,18.2793111 L158.925495,20.2593111 C158.925495,20.6320889 158.61623,20.9376444 158.258452,20.9376444 L155.256757,20.9376444 L155.256757,31.5098667 C155.256757,33.1843111 155.347718,33.3982 156.55446,33.3982 L158.325156,33.3982 C158.761766,33.3982 159.02252,33.5632 159.02252,33.8993111 L159.02252,33.8993111 Z M187.335476,33.8993111 L187.335476,36.0076444 C187.335476,36.3559778 187.123235,36.5515333 186.692689,36.6248667 C185.886173,36.7532 185.152426,36.8632 184.424742,36.8632 C180.652915,36.8632 179.112652,36.0076444 179.112652,31.5098667 L179.112652,20.9376444 L175.983612,20.4609778 C175.613706,20.3998667 175.310505,20.1554222 175.310505,19.7887556 L175.310505,18.2793111 C175.310505,17.9004222 175.613706,17.5948667 175.983612,17.5948667 L179.112652,17.5948667 L179.112652,13.1398667 C179.112652,12.7732 179.415853,12.5348667 179.791823,12.4676444 L182.890542,11.9359778 L183.017887,11.9359778 C183.321089,11.9359778 183.557586,12.1009778 183.557586,12.4370889 L183.557586,17.5948667 L186.553217,17.5948667 C186.923122,17.5948667 187.22026,17.9004222 187.22026,18.2793111 L187.22026,20.2593111 C187.22026,20.6320889 186.923122,20.9376444 186.553217,20.9376444 L183.557586,20.9376444 L183.557586,31.5098667 C183.557586,33.1843111 183.65461,33.3982 184.855288,33.3982 L186.613857,33.3982 C187.056531,33.3982 187.335476,33.5632 187.335476,33.8993111 L187.335476,33.8993111 Z M86.3572467,25.4843111 L79.2805235,25.4843111 L79.2805235,25.3376444 C79.2805235,22.6732 80.790467,21.2004222 82.8583013,21.2004222 C84.9200716,21.2004222 86.3572467,22.7159778 86.3572467,25.3376444 L86.3572467,25.4843111 Z M82.8583013,17.3626444 C77.7402599,17.3626444 74.8416535,20.6565333 74.8416535,25.9182 L74.8416535,28.4054222 C74.8416535,35.0420889 79.583725,36.8632 82.9189416,36.8632 C85.9206365,36.8632 87.230467,36.6859778 89.3892618,36.2826444 C89.9956648,36.1909778 90.0926893,35.9465333 90.0926893,35.4087556 L90.0926893,33.1843111 C90.0926893,32.8604222 89.831936,32.6770889 89.4923503,32.6770889 L89.3892618,32.6770889 C87.9945348,32.8176444 85.6902034,33.0193111 83.2524633,33.0193111 C80.0506554,33.0193111 79.2562674,30.6970889 79.2562674,28.7415333 L79.2562674,28.6437556 L90.1290734,28.6437556 C90.6020678,28.6437556 90.8021808,28.3382 90.8021808,27.8004222 L90.8021808,25.9182 C90.8021808,20.9009778 87.9945348,17.3626444 82.8583013,17.3626444 L82.8583013,17.3626444 Z" id="Fill-6" fill="#333F48"></path>
            </g>
        </g>
    </g>
</svg>